<?xml version="1.0" encoding="UTF-8"?>
<svg width="24px" height="19px" viewBox="0 0 24 19" version="1.1" xmlns="http://www.w3.org/2000/svg" xmlns:xlink="http://www.w3.org/1999/xlink">
	<!-- Generator: Sketch 56.3 (81716) - https://sketch.com -->
	<title>
		Color/Greyscale/Dark-Grey
	</title>
	<desc>
		Created with Sketch.
	</desc>
	<path d="M23.9555072,18.322841 L23.98109,18.4148488 L23.98109,18.4727704 C23.9940023,18.5142999 24,18.5528028 24,18.5939752 C24,18.8193464 23.8200125,19 23.5973791,19 L9.72596761,19 C9.50333421,19 9.32334667,18.8193464 9.32334667,18.5939752 C9.32334667,15.6812244 11.0403597,13.0800777 13.6535895,11.8965531 L14.4582359,11.532131 L13.7985996,10.9436603 C12.8730275,10.1179445 12.3360713,8.96447414 12.3360713,7.72121296 C12.3360713,5.33573187 14.2691305,3.39283525 16.6411852,3.39283525 C19.01324,3.39283525 20.9462992,5.33573187 20.9462992,7.72121296 C20.9462992,8.96419628 20.4076892,10.119658 19.4798164,10.9476291 L18.8198656,11.5365245 L19.6252209,11.9006304 C22.1544319,13.0441019 23.8528268,15.5185706 23.9555072,18.322841 Z M8.23496031,16.7562916 L0.975623255,16.7562916 C0.437079218,16.7562916 -3.90798505e-14,16.3189492 -3.90798505e-14,15.7757033 C-3.90798505e-14,12.559374 1.92197781,9.79803753 4.66738165,8.55465167 C3.66053845,7.65643285 3.01272461,6.3620564 3.01272461,4.90294112 C3.01272461,2.20043997 5.2020232,6.92779167e-14 7.89084089,6.92779167e-14 C10.2295746,6.92779167e-14 12.1903961,1.6647475 12.6613476,3.87662594 C11.6577677,4.87071623 11.034757,6.25171018 11.034757,7.77575818 C11.034757,9.0753747 11.4970043,10.2974507 12.3113988,11.2690621 C10.2441421,12.4503203 8.76359666,14.4429366 8.23496031,16.7562916 Z">
	</path>
</svg>
